<svg width="24" height="23" viewBox="0 0 24 23" fill="none" xmlns="http://www.w3.org/2000/svg">
<path d="M3.00001 8.625H8.0001H18.5H21C21.3161 8.625 21.6136 8.78017 21.8023 9.04346C21.991 9.30676 22.0487 9.64718 21.9578 9.96152L19.813 17.384C19.1785 19.5797 17.2319 21.0833 15.0239 21.0833H8.97613C6.76809 21.0833 4.82147 19.5797 4.187 17.384L2.04218 9.96152C1.95135 9.64718 2.00902 9.30676 2.19772 9.04346C2.38641 8.78017 2.6839 8.625 3.00001 8.625Z" fill="black"/>
<path fill-rule="evenodd" clip-rule="evenodd" d="M10.4961 2.043C10.9756 2.30559 11.1422 2.89099 10.8682 3.35053L6.86817 10.0589C6.59416 10.5184 5.98331 10.6781 5.50379 10.4155C5.02427 10.1529 4.85767 9.56747 5.13168 9.10793L9.13168 2.3996C9.40569 1.94006 10.0165 1.7804 10.4961 2.043Z" fill="black"/>
<path fill-rule="evenodd" clip-rule="evenodd" d="M13.5038 2.043C13.0243 2.30559 12.8577 2.89099 13.1317 3.35053L17.1317 10.0589C17.4057 10.5184 18.0165 10.6781 18.4961 10.4155C18.9756 10.1529 19.1422 9.56747 18.8682 9.10793L14.8682 2.3996C14.5942 1.94006 13.9833 1.7804 13.5038 2.043Z" fill="black"/>
</svg>
