<svg width="803" height="832" viewBox="0 0 803 832" fill="none" xmlns="http://www.w3.org/2000/svg">
<path d="M49.4656 579.353L58.6099 580.909L67.5076 583.217L76.5788 584.696L85.5305 586.737L94.4783 588.798L103.48 590.589L112.393 592.816L121.495 594.144L130.389 596.463L139.46 597.938L148.335 600.342L157.391 601.894L166.365 603.828L175.406 605.453L184.4 607.287L193.34 609.382L202.326 611.266L211.359 612.918L220.299 615.014L229.289 616.874L238.306 618.619L247.177 621.042L256.168 622.906L265.215 624.493L274.144 626.642L283.246 627.983L292.171 630.14L301.134 632.139L310.109 634.077L319.122 635.837L328.082 637.84L337.041 639.85L346.131 641.222L355.125 643.074L364.112 644.946L373.06 647.015L382.085 648.714L390.948 651.194L400.007 652.72L409.044 654.353L417.995 656.379L426.916 658.59L436.018 659.903L444.978 661.91L453.995 663.632L462.846 666.17L471.844 667.984L480.804 669.999L489.809 671.778L498.788 673.704L507.782 675.542L516.865 676.978L525.786 679.17L534.803 680.896L543.816 682.66L552.768 684.698L561.696 686.858L570.679 688.765L579.715 690.418L588.794 691.854L597.634 694.447L606.751 695.706L615.746 697.559L624.686 699.67L633.687 701.465L642.658 703.433L651.703 705.032L660.643 707.158L669.621 709.08L678.535 711.322L687.54 713.113L696.519 715.066L705.359 716.456L704.6 707.443L702.871 698.325L701.877 689.1L700.19 679.975L699.234 670.746L697.621 661.61L696.234 652.442L694.901 643.263L693.734 634.065L692.536 624.871L691.092 615.707L690.109 606.482L688.9 597.288L687.117 588.178L685.645 579.018L684.898 569.758L683.438 560.602L682.221 551.408L680.857 542.237L679.625 533.046L678.477 523.84L676.501 514.758L675.314 505.559L674.378 496.327L672.849 487.178L671.366 478.023L670.203 468.821L669.051 459.618L667.799 450.428L666.725 441.214L665.303 432.051L663.871 422.887L662.187 413.762L661.425 404.502L659.687 395.385L658.825 386.14L656.91 377.046L655.859 367.829L654.287 358.684L653.108 349.486L651.849 340.3L650.828 331.078L649.311 321.93L648.39 312.693L646.449 303.603L645.47 294.378L644.511 285.149L642.52 276.066L641.765 266.806L640.563 257.612L638.991 248.468L637.277 239.346L635.987 230.16L634.72 220.973L634.003 211.709L632.355 202.577L631.068 193.394L629.743 184.215L628.584 175.013L627.586 165.784L625.757 156.678L624.258 147.522L623.615 138.247L621.685 129.153L621.05 119.877L619.466 110.733L618.172 101.55L616.485 92.4252L615.568 83.1846L613.943 74.048L612.864 64.8305L611.162 55.7055L610.079 46.488L608.928 37.2551L602.064 43.5336L595.716 50.309L589.083 56.784L582.419 63.2281L575.771 69.6916L568.973 76.0009L562.548 82.6916L555.684 88.9316L548.927 95.2794L542.218 101.681L535.92 108.507L529.117 114.808L522.558 121.364L515.551 127.458L508.899 133.917L502.293 140.419L495.988 147.241L489.332 153.697L482.364 159.829L475.573 166.142L469.052 172.736L462.596 179.396L455.913 185.825L449.303 192.327L442.351 198.478L435.76 204.999L428.885 211.228L422.263 217.718L415.977 224.555L409.298 230.992L402.576 237.374L395.682 243.587L389.338 250.363L382.655 256.788L375.891 263.135L369.104 269.456L362.583 276.051L355.869 282.445L349.359 289.051L342.364 295.156L335.855 301.766L329.114 308.129L322.739 314.874L315.852 321.09L309.427 327.781L302.521 333.975L295.788 340.35L289.474 347.156L282.691 353.484L275.808 359.701L269.221 366.226L262.562 372.678L256.09 379.327L249.631 385.983L242.601 392.053L236.292 398.867L229.605 405.296L222.71 411.501L216.297 418.207L209.587 424.609L202.511 430.633L196.348 437.597L189.477 443.837L182.898 450.37L176.014 456.591L169.666 463.366L162.906 469.718L156.062 475.981L149.541 482.579L143.05 489.208L136.286 495.556L129.761 502.143L123.051 508.545L116.418 515.027L109.535 521.252L102.714 527.538L96.0884 534.025L89.5248 540.581L83.0499 547.229L76.2668 553.554L69.5453 559.948L62.7352 566.253L56.1832 572.824L49.4656 579.353Z" fill="#FFEAAF"/>
<path d="M722.064 365.059C721.875 365.206 721.733 365.406 721.656 365.633C718.533 374.847 715.411 384.062 712.288 393.278C718.446 396.396 725.187 398.196 732.079 398.563C731.84 405.134 732.164 411.714 733.046 418.23L747.571 421.204" stroke="black" stroke-width="5" stroke-miterlimit="10"/>
<path d="M650.428 133.355L664.606 144.699C665.309 145.182 665.895 145.816 666.32 146.555C667.091 148.169 666.193 150.049 665.319 151.609L659.664 161.701C670.264 162.059 680.875 161.647 691.415 160.468C690.629 164.075 689.483 167.594 687.995 170.972" stroke="black" stroke-width="5" stroke-miterlimit="10"/>
<path d="M415.272 137.272L411.563 156.998L437.208 147.799C437.886 147.553 438.634 147.249 438.926 146.594C439.09 146.067 439.09 145.503 438.926 144.976C438.233 141.409 437.538 137.844 436.842 134.279L462.457 133.259" stroke="black" stroke-width="5" stroke-miterlimit="10"/>
<path d="M156.193 170.156L150.584 184.585L181.538 179.689C178.912 184.491 176.738 189.526 175.044 194.73C180.982 195.25 186.96 195.104 192.866 194.295" stroke="black" stroke-width="5" stroke-miterlimit="10"/>
<path d="M86.7476 403.674C86.6127 402.715 88.2613 403.312 88.6735 404.186L95.7609 418.954C98.6857 411.215 101.84 403.569 105.225 396.017L130.443 395.993" stroke="black" stroke-width="5" stroke-miterlimit="10"/>
<path d="M121.553 540.877C121.588 547.583 120.351 554.235 117.905 560.479C125.633 557.918 132.945 554.239 139.607 549.559L152.441 561.238C153.177 561.908 154.028 562.621 155.026 562.575C157.156 562.478 157.479 559.532 158.392 557.606C160.318 553.554 166.13 553.523 170.352 555.021C174.574 556.519 178.949 558.969 183.263 557.748" stroke="black" stroke-width="5" stroke-miterlimit="10"/>
<path d="M265.266 84.005C272.766 84.1809 280.246 83.1549 287.421 80.9659L276.324 94.9019L284.525 94.7979" stroke="black" stroke-width="5" stroke-miterlimit="10"/>
<path d="M711.322 660.701C714.123 655.242 718.303 650.61 723.447 647.265C724.115 653.338 724.782 659.413 725.45 665.488L734.433 661.814" stroke="black" stroke-width="5" stroke-miterlimit="10"/>
<path d="M507.982 109.031C509.053 112.632 513.021 114.45 516.657 115.394C520.416 116.368 524.387 116.888 528.182 116.064C531.976 115.24 535.589 112.905 537.222 109.381C538.127 107.424 538.377 105.225 538.377 103.072C538.377 100.025 537.749 96.8548 535.87 94.4551C533.435 91.3467 529.04 90.0563 525.204 91.0077C521.368 91.9591 518.194 94.952 516.657 98.592C515.886 100.387 515.582 102.648 516.846 104.127C517.504 104.808 518.33 105.302 519.241 105.56C521.171 106.227 523.212 106.51 525.25 106.392C526.479 106.319 527.8 106.045 528.597 105.109C529.395 104.173 529.241 102.413 528.077 102.028L528.74 100.965" stroke="black" stroke-width="5" stroke-miterlimit="10"/>
<path d="M745.969 282.892C742.029 283.011 738.423 285.703 736.659 289.228C734.895 292.752 734.818 296.962 735.866 300.76C736.301 302.347 736.944 303.915 738.057 305.128C739.278 306.453 740.977 307.255 742.718 307.721C746.928 308.845 752.19 307.663 754.089 303.738C754.859 302.197 754.978 300.41 754.94 298.688C754.905 297.147 754.697 295.499 753.688 294.335C752.806 293.315 751.446 292.837 750.114 292.61C747.991 292.252 745.657 292.487 743.951 293.808C742.244 295.129 741.482 297.733 742.656 299.535C743.831 301.338 747.063 301.396 747.941 299.431" stroke="black" stroke-width="5" stroke-miterlimit="10"/>
<path d="M182.809 692.563C180.741 694.632 180.036 697.659 179.423 700.521C179.142 701.834 178.861 703.217 179.219 704.5C179.532 705.477 180.079 706.361 180.814 707.077C182.319 708.664 184.217 709.827 186.315 710.448C188.413 711.068 190.637 711.125 192.764 710.612C194.891 710.1 196.846 709.035 198.43 707.527C200.015 706.018 201.174 704.119 201.791 702.019C202.167 700.953 202.211 699.798 201.918 698.707C201.571 697.659 200.762 696.835 199.992 696.053C197.646 693.699 194.53 691.149 191.387 692.201C188.814 693.075 187.616 695.964 186.765 698.545C186.501 699.179 186.389 699.867 186.437 700.552C186.595 701.321 187.028 702.005 187.655 702.478C188.623 703.261 189.812 703.721 191.055 703.796C192.298 703.871 193.533 703.555 194.588 702.894" stroke="black" stroke-width="5" stroke-miterlimit="10"/>
<path d="M82.6339 604.741C81.4783 608.207 83.1269 612.444 86.3702 614.132C89.6134 615.819 94.0739 614.729 96.0845 611.662C97.1592 610.018 97.529 607.996 97.5251 606.031C97.5213 604.067 97.1053 601.956 95.8573 600.4C94.6093 598.844 92.3906 597.958 90.5379 598.713C89.3929 601.646 89.3179 604.889 90.326 607.872" stroke="black" stroke-width="5" stroke-miterlimit="10"/>
<path d="M100.206 445.79C99.2547 444.057 97.0553 443.256 95.1024 443.564C93.1495 443.872 91.447 445.105 90.1451 446.595C89.1051 447.782 88.2423 449.291 88.4156 450.832C88.7314 453.663 91.9978 454.996 94.7442 455.755C95.3637 455.966 96.016 456.064 96.6701 456.044C98.596 455.863 99.7824 453.505 99.2277 451.649C98.6731 449.792 96.8666 448.54 94.9907 448.04C94.4322 447.893 93.5231 448.282 93.8891 448.733" stroke="black" stroke-width="5" stroke-miterlimit="10"/>
<path d="M100.029 240.19C98.0798 240.271 96.4351 241.854 95.7571 243.68C95.0792 245.505 95.1948 247.532 95.4836 249.457C95.8688 252.031 96.67 254.75 98.7154 256.36C100.761 257.97 103.449 258.105 105.988 258.039C108.407 257.978 110.906 257.731 113.006 256.529C115.105 255.328 116.696 252.951 116.291 250.567C115.887 248.183 113.738 246.549 111.565 245.559C109.801 244.751 107.786 244.215 105.922 244.758C104.058 245.301 102.506 247.231 102.96 249.119C103.415 251.006 106.361 251.853 107.413 250.22" stroke="black" stroke-width="5" stroke-miterlimit="10"/>
<path d="M217.168 144.968C216.408 145.266 215.586 145.366 214.777 145.259C213.969 145.152 213.201 144.841 212.545 144.356C211.242 143.36 210.321 141.945 209.938 140.35C209.598 139.049 209.542 137.69 209.774 136.365C210.006 135.041 210.52 133.781 211.282 132.673C212.057 131.572 213.066 130.656 214.237 129.99C215.408 129.324 216.711 128.925 218.053 128.821C220.029 128.69 222.16 129.318 223.384 130.874C224.292 132.132 224.679 133.691 224.463 135.227C224.251 137.203 223.146 139.214 221.289 139.926C219.432 140.639 216.925 139.495 216.717 137.519" stroke="black" stroke-width="5" stroke-miterlimit="10"/>
<path d="M344.583 126.391C344.198 123.49 346.027 120.717 348.281 118.857C349.83 117.504 351.723 116.606 353.75 116.26C355.776 115.983 357.964 116.515 359.428 117.944C360.892 119.373 361.466 121.495 361.6 123.537C361.735 125.578 361.439 127.774 360.164 129.364C358.889 130.955 356.435 131.741 354.706 130.643C352.683 129.353 352.618 126.476 352.78 124.095" stroke="black" stroke-width="5" stroke-miterlimit="10"/>
<path d="M125.894 115.17C127.273 117.431 130.131 118.572 132.746 118.252C135.362 117.932 137.754 116.326 139.345 114.219C140.115 113.221 140.716 112.062 140.77 110.814C140.851 108.888 139.634 107.22 138.459 105.706C138.031 105.061 137.477 104.51 136.829 104.085C135.489 103.314 133.698 103.8 132.616 104.89C131.533 105.98 131.056 107.544 130.921 109.077C130.836 110.044 130.921 111.134 131.614 111.812C132.307 112.489 133.775 112.316 133.956 111.361" stroke="black" stroke-width="5" stroke-miterlimit="10"/>
<path d="M712.512 109.319C711.356 109.181 710.89 110.775 710.878 111.95C710.855 113.841 710.878 115.902 712.076 117.377C712.893 118.394 714.141 118.968 715.404 119.303C717.013 119.713 718.689 119.784 720.327 119.512C721.965 119.24 723.528 118.631 724.918 117.724C726.243 116.846 727.445 115.586 727.684 114.015C728.015 111.831 726.44 109.866 724.988 108.237C724.252 107.417 723.447 106.561 722.411 106.238C720.739 105.726 718.848 106.85 718.174 108.464C717.5 110.078 717.885 111.993 718.825 113.472" stroke="black" stroke-width="5" stroke-miterlimit="10"/>
<path d="M686.851 586.495L678.296 583.271L669.76 579.615L661.263 575.856L652.885 571.827L644.145 568.649L635.64 564.917L627.286 560.83L618.6 557.521L610.195 553.554L601.413 550.468L592.985 546.555L584.364 543.088L575.96 539.125L567.478 535.334L558.781 532.049L550.314 528.232L541.836 524.434L533.339 520.678L524.53 517.654L516.21 513.494L507.524 510.178L498.965 506.576L490.472 502.813L481.832 499.397L473.331 495.645L464.976 491.566L456.31 488.207L447.77 484.555L439.365 480.584L430.776 477.052L422.159 473.585L413.608 469.961L405.034 466.386L396.541 462.631L387.874 459.279L379.307 455.693L370.795 451.969L362.452 447.863L353.927 444.169L345.249 440.848L336.725 437.151L328.074 433.761L319.788 429.516L311.002 426.439L302.567 422.54L294.043 418.854L285.58 415.01L277.029 411.389L268.324 408.119L259.819 404.387L251.272 400.751L242.748 397.06L234.393 392.966L225.811 389.407L217.279 385.732L208.509 382.624L199.93 379.053L191.491 375.167L182.913 371.604L174.296 368.118L166.03 363.823L157.414 360.348L148.913 356.597L140.265 353.188L131.834 349.274L123.194 345.869L126.557 337.079L130.767 328.632L133.933 319.742L137.908 311.199L141.378 302.44L145.161 293.812L148.843 285.137L152.93 276.64L156.254 267.815L159.967 259.156L164.016 250.902L172.525 253.999L180.887 258.066L189.442 261.683L197.978 265.339L206.683 268.609L215.022 272.723L223.696 276.058L232.19 279.822L240.837 283.219L249.396 286.828L257.858 290.661L266.44 294.216L274.864 298.137L283.439 301.704L292.105 305.067L300.398 309.288L309.038 312.713L317.739 315.979L326.063 320.143L334.838 323.24L343.162 327.404L351.821 330.774L360.414 334.306L368.903 338.073L377.374 341.887L386.006 345.33L394.557 348.955L403.146 352.483L411.455 356.682L420.175 359.909L428.715 363.557L437.305 367.093L445.617 371.272L454.237 374.735L462.677 378.622L471.278 382.123L479.918 385.551L488.507 389.079L497.074 392.669L505.583 396.398L513.991 400.354L522.469 404.148L531.232 407.279L539.679 411.151L548.25 414.733L556.847 418.257L565.363 421.967L573.93 425.557L582.481 429.185L591.009 432.86L599.522 436.584L608.077 440.205L616.574 443.953L625.248 447.3L633.56 451.491L642.281 454.719L650.616 458.86L659.291 462.192L667.707 466.136L676.416 469.398L685.025 472.896L693.588 476.493L701.965 480.538L710.532 484.139L718.987 488.003L727.295 491.531L723.713 499.963L720.084 508.656L716.448 517.346L712.535 525.917L709.222 534.745L705.124 543.238L702.073 552.178L698.183 560.76L694.2 569.304L690.787 578.094L686.851 586.495Z" stroke="black" stroke-width="5" stroke-miterlimit="10"/>
<path d="M361.57 638.498L359.131 629.181L355.114 620.333L348.739 612.964L341.421 606.559L333.389 600.819L324.711 596.124L315.933 591.656L306.8 587.966L297.845 583.84L288.662 580.254L279.005 578.074L270.855 575.22L263.143 571.307L255.586 567.201L247.613 563.838L240.348 559.169L233.796 553.542L226.123 547.363L219.432 540.134L212.738 532.923L207.072 524.88L201.56 516.965L196.699 508.595L193.883 499.315L190.597 490.333L199.422 488.291L208.316 486.62L211.274 497.024L216.844 506.28L222.502 515.37L228.172 523.332L234.874 530.446L241.866 537.306L249.646 543.269L257.935 548.496L266.594 553.087L275.369 557.517L284.625 560.837L293.754 563.148L302.505 566.565L311.349 569.735L319.654 574.18L328.521 577.392L336.687 582.053L344.791 586.814L352.583 592.099L359.439 597.83L364.994 604.837L370.625 611.693L375.359 619.27L378.379 627.709L379.735 636.938L370.625 638.098L361.57 638.498Z" fill="white"/>
<path d="M361.57 638.498L359.131 629.181L355.114 620.333L348.739 612.964L341.421 606.559L333.389 600.819L324.711 596.124L315.933 591.656L306.8 587.966L297.845 583.84L288.662 580.254L279.005 578.074L270.855 575.22L263.143 571.307L255.586 567.201L247.613 563.838L240.348 559.169L233.796 553.542L226.123 547.363L219.432 540.134L212.738 532.923L207.072 524.88L201.56 516.965L196.699 508.595L193.883 499.315L190.597 490.333L199.422 488.291L208.316 486.62L211.274 497.024L216.844 506.28L222.502 515.37L228.172 523.332L234.874 530.446L241.866 537.306L249.646 543.269L257.935 548.496L266.594 553.087L275.369 557.517L284.625 560.837L293.754 563.148L302.505 566.565L311.349 569.735L319.654 574.18L328.521 577.392L336.687 582.053L344.791 586.814L352.583 592.099L359.439 597.83L364.994 604.837L370.625 611.693L375.359 619.27L378.379 627.709L379.735 636.938L370.625 638.098L361.57 638.498Z" stroke="black" stroke-width="5" stroke-miterlimit="10"/>
<path d="M775.497 741.597L767.066 743.75L757.829 744.205L748.642 745.249L739.444 746.331L730.169 745.957L720.97 747.229L711.711 747.132L702.485 747.826L693.237 747.976L684 748.272L674.74 747.876L665.515 748.708L656.271 748.881L647.011 748.192L637.782 749.251L628.53 748.715L619.285 748.9L610.041 749.008L600.804 749.732L591.552 749.062L582.311 749.655L573.067 749.536L563.823 750.006L554.574 750.117L545.326 749.856L536.082 750.033L526.833 749.601L517.585 749.744L508.337 750.202L499.092 749.251L489.848 749.594L480.599 750.179L471.359 749.289L462.107 750.129L452.866 749.224L443.618 749.597L434.37 749.694L425.125 749.393L415.884 749.004L406.636 749.205L397.388 749.097L388.143 749.128L378.914 748.053L369.658 748.546L360.418 748.326L351.17 748.272L341.952 747.148L332.704 747.163L323.479 746.462L314.234 746.343L304.982 746.304L295.738 746.042L286.501 745.603L277.283 744.821L268.135 743.434L259.831 741.597L268.066 739.155L277.31 738.631L286.52 737.872L295.738 737.133L304.978 736.775L314.211 736.282L323.448 735.893L332.692 735.619L341.937 735.453L351.177 735.149L360.422 735.076L369.651 734.363L378.911 735.049L388.143 734.19L397.399 734.822L406.636 734.163L415.884 734.51L425.121 733.759L434.362 733.404L443.606 733.231L452.858 733.786L462.103 733.639L471.351 733.924L480.596 734.017L489.844 733.793L499.088 733.655L508.337 733.531L517.585 733.878L526.829 733.25L536.074 733.909L545.322 732.88L554.567 733.227L563.811 733.736L573.059 733.32L582.3 734.179L591.544 734.294L600.797 733.762L610.041 733.986L619.289 733.651L628.53 734.202L637.767 734.733L647.026 734.013L656.263 734.594L665.5 735.114L674.752 734.914L683.973 735.873L693.218 736.012L702.466 735.977L711.73 735.631L720.932 736.856L730.184 736.875L739.394 737.838L748.638 738.038L757.906 738.073L767.104 739.155L775.497 741.597Z" fill="black"/>
<path d="M362.741 272.218L364.139 281.181L366.219 290.006L366.831 299.089L368.345 308.009L370.163 316.9L371.276 325.894L371.858 334.938L373.125 343.928L372.624 353.022L373.761 362.066L372.917 371.111L372.405 380.182L369.963 388.941L365.822 396.98L359.424 403.605L352.298 409.429L345.608 415.777L338.381 421.504L330.581 426.419L322.558 430.953L314.604 435.564L306.997 440.802L298.946 445.278L290.53 449.041L282.464 453.502L274.213 457.596L265.608 460.913L257.254 464.78L248.637 468.027L240.46 471.409L242.374 479.848L245.775 487.968L248.063 496.346L256.699 494.47L265.755 493.673L274.576 491.616L283.489 489.994L292.167 487.344L300.872 484.879L309.716 482.911L318.363 480.237L327.072 477.737L335.504 474.417L344.132 471.636L352.525 468.223L360.591 464.071L368.769 460.204L377.027 456.425L384.38 451.087L391.772 445.898L399.214 440.729L405.943 434.635L411.563 427.509L416.289 419.817L420.48 411.374L422.283 402.118L423.596 392.82L424.89 383.463L424.108 374.042L424.601 364.593L422.999 355.272L422.687 345.823L420.815 336.575L419.32 327.273L417.822 317.963L415.295 308.872L413.119 299.713" fill="white"/>
<path d="M362.741 272.218L364.139 281.181L366.219 290.006L366.831 299.089L368.345 308.009L370.163 316.9L371.276 325.894L371.858 334.938L373.125 343.928L372.624 353.022L373.761 362.066L372.917 371.111L372.405 380.182L369.963 388.941L365.822 396.98L359.424 403.605L352.298 409.429L345.608 415.777L338.381 421.504L330.581 426.419L322.558 430.953L314.604 435.564L306.997 440.802L298.946 445.278L290.53 449.041L282.464 453.502L274.213 457.596L265.608 460.913L257.254 464.78L248.637 468.027L240.46 471.409L242.374 479.848L245.775 487.968L248.063 496.346L256.699 494.47L265.755 493.673L274.576 491.616L283.489 489.994L292.167 487.344L300.872 484.879L309.716 482.911L318.363 480.237L327.072 477.737L335.504 474.417L344.132 471.636L352.525 468.223L360.591 464.071L368.769 460.204L377.027 456.425L384.38 451.087L391.772 445.898L399.214 440.729L405.943 434.635L411.563 427.509L416.289 419.817L420.48 411.374L422.283 402.118L423.596 392.82L424.89 383.463L424.108 374.042L424.601 364.593L422.999 355.272L422.687 345.823L420.815 336.575L419.32 327.273L417.822 317.963L415.295 308.872L413.119 299.713" stroke="black" stroke-width="5" stroke-miterlimit="10"/>
<path d="M383.964 421.735L375.629 426.377L367.605 431.342L359.748 436.569L351.528 441.253L343.778 446.653L336.282 452.404L328.848 458.228L321.237 463.805L313.518 469.263L306.453 475.538L299.559 481.99L292.406 488.145L285.349 494.427L278.997 501.422L272.461 508.244L266.221 515.358L261.471 523.582L255.975 531.267L251.476 539.606L248.61 548.631L247.123 557.914L246.341 567.301L247.824 576.445L248.745 585.674L250.925 594.683L253.471 603.585L255.085 612.741L258.224 621.469L261.186 630.24L263.598 639.211L266.918 647.866L270.412 656.448L274.333 664.849L277.457 673.589L281.998 681.701L285.519 690.271L289.69 698.541L294.278 706.587L297.829 714.669L290.946 720.366L283.096 724.884L275.415 729.668L267.7 734.394L260.589 739.663L269.668 740.307L278.951 739.17L288.234 739.193L297.517 739.201L306.8 740.237L316.087 739.49L325.37 739.532L334.657 739.694L343.94 739.236L353.215 739.702L349.783 731.17L347.009 722.38L345.084 713.332L342.249 704.569L339.348 695.818L336.64 687.005L334.271 678.095L332.076 669.144L330.57 660.034L327.785 651.206L326.094 642.138L325.046 632.963L323.324 623.896L322.643 614.698L321.695 605.519L321.676 596.294L321.895 587.053L323.625 577.966L326.591 569.219L332.523 562.27L339.988 556.415L347.033 549.933L355.225 545.049L363.006 539.544L371.176 534.649L379.569 530.142L387.743 525.258L396.548 521.548L404.51 516.233L413.469 512.866L421.94 508.545L430.248 504.697L434.882 512.439L440.228 520.158L445.301 528.043L450.578 535.793L455.289 543.928L461.078 551.323L466.837 558.73L472.322 566.33L477.764 573.976L483.461 581.425L489.909 588.262L495.753 595.604L502.374 602.252L508.83 609.039L515.073 616.057L522.357 621.989L529.537 627.987L536.967 633.668L544.629 639.026L552.802 643.552L561.057 648.012L570.078 650.597L579.326 652.43L588.886 652.169L598.324 650.774L607.66 648.933L616.901 646.618L625.726 643.013L634.55 639.457L643.302 635.659L651.606 630.976L659.345 625.383L667.803 620.911L675.145 614.802L682.852 609.217L690.418 603.419L697.347 596.875L704.596 590.685L711.006 583.386L719.896 583.49L728.659 582.631L737.468 582.566L746.25 582.011L755.502 581.406L747.71 575.428L739.991 570.089L732.591 564.316L724.676 559.25L716.926 553.958L709.708 547.934L701.788 543.049L694.231 547.521L686.335 551.974L678.346 556.273L669.949 559.74L661.86 563.834L653.351 566.993L645.043 570.602L636.526 573.699L627.786 576.098L619.008 578.278L610.176 580.254L601.139 580.613L592.184 580.204L583.505 578.178L575.151 574.427L568.19 568.418L561.766 561.893L555.372 555.241L550.364 547.494L546.481 539.14L542.241 530.978L539.359 522.242L537.206 513.317L535.068 504.377L533.871 495.256L534.152 486.046L533.82 476.875L534.71 467.742L535.411 458.586L536.802 449.492L538.462 440.428L540.565 431.392L542.375 422.255L542.768 412.945L543.396 403.67L544.297 394.372L544.009 385.05L543.404 375.752L542.341 366.496L541 357.286L540.619 347.93L538.747 338.79L536.405 329.765L534.252 320.697L531.636 311.75L528.385 303.014L525.146 294.266L520.655 286.077L516.248 277.888L511.491 269.892L505.737 262.585L500.382 254.939L493.938 248.179L486.504 242.532L478.67 237.132L470.638 232.059L462.704 226.705L453.898 222.999L444.97 219.617L435.714 217.291L426.365 215.453L416.901 214.406L407.449 212.861L397.9 213.755L388.394 214.124L378.884 214.671L369.404 215.642L359.894 216.486L350.395 215.569L342.241 211.929L336.205 205.127L332.496 196.849L328.844 188.591L324.434 180.721L319.954 172.867L312.824 167.193L303.977 164.077L294.697 163.415L285.534 164.085L276.528 166.539L269.545 172.732L263.586 179.955L261.76 189.137L260.74 198.347L262.427 207.492L264.792 216.516L264.784 225.091L262.057 233.353L261.221 241.788L271.02 239.285L276.594 246.923L282.714 254.022L290.807 258.764L300.013 258.748L308.703 255.239L316.11 250.251L324.669 247.489L333.52 249.276L341.867 252.843L348.492 259.083L355.26 265.146L360.229 272.788L364.277 280.935L367.987 289.232L371.453 297.633L375.259 305.91L377.562 314.735L380.143 323.44L383.44 331.949L385.266 340.87L387.311 349.733L388.328 358.777L389.102 367.821L389.931 376.857L390.651 385.944L389.268 394.965L388.505 404.009L386.737 412.93L383.964 421.735Z" fill="white"/>
<path d="M383.964 421.735L375.629 426.377L367.605 431.342L359.748 436.569L351.528 441.253L343.778 446.653L336.282 452.404L328.848 458.228L321.237 463.805L313.518 469.263L306.453 475.538L299.559 481.99L292.406 488.145L285.349 494.427L278.997 501.422L272.461 508.244L266.221 515.358L261.471 523.582L255.975 531.267L251.476 539.606L248.61 548.631L247.123 557.914L246.341 567.301L247.824 576.445L248.745 585.674L250.925 594.683L253.471 603.585L255.085 612.741L258.224 621.469L261.186 630.24L263.598 639.211L266.918 647.866L270.412 656.448L274.333 664.849L277.457 673.589L281.998 681.701L285.519 690.271L289.69 698.541L294.278 706.587L297.829 714.669L290.946 720.366L283.096 724.884L275.415 729.668L267.7 734.394L260.589 739.663L269.668 740.307L278.951 739.17L288.234 739.193L297.517 739.201L306.8 740.237L316.087 739.49L325.37 739.532L334.657 739.694L343.94 739.236L353.215 739.702L349.783 731.17L347.009 722.38L345.084 713.332L342.249 704.569L339.348 695.818L336.64 687.005L334.271 678.095L332.076 669.144L330.57 660.034L327.785 651.206L326.094 642.138L325.046 632.963L323.324 623.896L322.643 614.698L321.695 605.519L321.676 596.294L321.895 587.053L323.625 577.966L326.591 569.219L332.523 562.27L339.988 556.415L347.033 549.933L355.225 545.049L363.006 539.544L371.176 534.649L379.569 530.142L387.743 525.258L396.548 521.548L404.51 516.233L413.469 512.866L421.94 508.545L430.248 504.697L434.882 512.439L440.228 520.158L445.301 528.043L450.578 535.793L455.289 543.928L461.078 551.323L466.837 558.73L472.322 566.33L477.764 573.976L483.461 581.425L489.909 588.262L495.753 595.604L502.374 602.252L508.83 609.039L515.073 616.057L522.357 621.989L529.537 627.987L536.967 633.668L544.629 639.026L552.802 643.552L561.057 648.012L570.078 650.597L579.326 652.43L588.886 652.169L598.324 650.774L607.66 648.933L616.901 646.618L625.726 643.013L634.55 639.457L643.302 635.659L651.606 630.976L659.345 625.383L667.803 620.911L675.145 614.802L682.852 609.217L690.418 603.419L697.347 596.875L704.596 590.685L711.006 583.386L719.896 583.49L728.659 582.631L737.468 582.566L746.25 582.011L755.502 581.406L747.71 575.428L739.991 570.089L732.591 564.316L724.676 559.25L716.926 553.958L709.708 547.934L701.788 543.049L694.231 547.521L686.335 551.974L678.346 556.273L669.949 559.74L661.86 563.834L653.351 566.993L645.043 570.602L636.526 573.699L627.786 576.098L619.008 578.278L610.176 580.254L601.139 580.613L592.184 580.204L583.505 578.178L575.151 574.427L568.19 568.418L561.766 561.893L555.372 555.241L550.364 547.494L546.481 539.14L542.241 530.978L539.359 522.242L537.206 513.317L535.068 504.377L533.871 495.256L534.152 486.046L533.82 476.875L534.71 467.742L535.411 458.586L536.802 449.492L538.462 440.428L540.565 431.392L542.375 422.255L542.768 412.945L543.396 403.67L544.297 394.372L544.009 385.05L543.404 375.752L542.341 366.496L541 357.286L540.619 347.93L538.747 338.79L536.405 329.765L534.252 320.697L531.636 311.75L528.385 303.014L525.146 294.266L520.655 286.077L516.248 277.888L511.491 269.892L505.737 262.585L500.382 254.939L493.938 248.179L486.504 242.532L478.67 237.132L470.638 232.059L462.704 226.705L453.898 222.999L444.97 219.617L435.714 217.291L426.365 215.453L416.901 214.406L407.449 212.861L397.9 213.755L388.394 214.124L378.884 214.671L369.404 215.642L359.894 216.486L350.395 215.569L342.241 211.929L336.205 205.127L332.496 196.849L328.844 188.591L324.434 180.721L319.954 172.867L312.824 167.193L303.977 164.077L294.697 163.415L285.534 164.085L276.528 166.539L269.545 172.732L263.586 179.955L261.76 189.137L260.74 198.347L262.427 207.492L264.792 216.516L264.784 225.091L262.057 233.353L261.221 241.788L271.02 239.285L276.594 246.923L282.714 254.022L290.807 258.764L300.013 258.748L308.703 255.239L316.11 250.251L324.669 247.489L333.52 249.276L341.867 252.843L348.492 259.083L355.26 265.146L360.229 272.788L364.277 280.935L367.987 289.232L371.453 297.633L375.259 305.91L377.562 314.735L380.143 323.44L383.44 331.949L385.266 340.87L387.311 349.733L388.328 358.777L389.102 367.821L389.931 376.857L390.651 385.944L389.268 394.965L388.505 404.009L386.737 412.93L383.964 421.735Z" stroke="black" stroke-width="5" stroke-miterlimit="10"/>
<path d="M368.095 438.745C424.07 436.735 479.082 460.135 534.88 455.154" stroke="black" stroke-width="5" stroke-miterlimit="10"/>
<path d="M676.408 289.929L667.314 291.732L658.678 295.09L649.777 297.556L640.694 299.389L632.016 302.609L623.064 304.897L614.228 307.578L605.534 310.74L596.702 313.444L587.696 315.548L578.783 317.97L569.908 320.528L561.23 323.744L552.252 325.94L543.419 328.64L534.618 331.444L525.708 333.867L516.911 336.687L507.901 338.786L498.988 341.205L490.156 343.897L481.505 347.214L472.568 349.559L463.574 351.701L454.981 355.206L446.122 357.806L437.043 359.674L428.21 362.363L419.594 365.787L410.469 367.486L401.791 370.706L392.931 373.302L383.899 375.328L375.059 377.994L366.223 380.679L357.367 383.298L348.716 386.595L339.868 389.241L330.92 391.545L321.942 393.748L313.252 396.937L304.158 398.748L295.329 401.459L286.67 404.741L277.857 407.507L268.725 409.194L259.877 411.836L251.333 415.519L242.278 417.452L233.434 420.11L224.447 422.298L215.746 425.437L206.983 428.364L198.159 431.095L189.261 433.576L180.197 435.498L171.446 438.483L162.668 441.372L153.697 443.618L144.995 446.584L137.303 452.196L130.555 459.018L123.24 465.154L115.482 470.758L108.122 476.852L100.753 482.93L93.9082 489.1L102.895 489.578L112.185 490.637L121.491 491.492L130.778 492.621L140.15 492.725L149.398 494.297L158.731 494.512L167.725 492.425L176.588 489.817L185.197 486.35L194.091 483.843L203.17 481.959L211.871 478.793L220.619 475.788L229.455 473.084L238.418 470.808L247.22 467.985L256.14 465.562L265.007 462.958L273.978 460.705L282.637 457.407L291.497 454.784L300.406 452.319L309.439 450.274L318.078 446.903L326.972 444.4L336.036 442.451L344.733 439.281L353.739 437.147L362.332 433.63L371.315 431.407L380.085 428.484L389.091 426.342L398.012 423.931L406.698 420.722L415.634 418.354L424.559 415.95L433.464 413.481L442.031 409.864L451.125 408.034L459.826 404.876L468.663 402.168L477.572 399.707L486.323 396.71L495.225 394.233L504.284 392.269L513.009 389.18L521.864 386.545L530.874 384.419L539.675 381.599L548.45 378.679L557.297 376.002L566.118 373.252L575.031 370.787L583.748 367.686L592.577 364.955L601.471 362.428L610.542 360.514L619.42 357.945L628.125 354.798L637.004 352.236L645.744 349.197L654.88 347.487L663.474 343.959L672.449 341.709L681.331 339.136L690.279 336.798L697.393 332.384L700.787 324.888L700.71 316.811L698.248 308.526L695.868 300.213L692.116 292.729L684.59 288.793L676.408 289.929Z" fill="#FFC32D"/>
<path d="M677.502 295.526L668.408 297.332L659.772 300.687L650.871 303.152L641.784 304.99L633.106 308.21L624.154 310.498L615.318 313.179L606.624 316.341L597.796 319.045L588.786 321.148L579.873 323.567L571.002 326.129L562.324 329.341L553.342 331.54L544.513 334.241L535.712 337.045L526.799 339.468L518.005 342.287L508.995 344.386L500.082 346.805L491.246 349.498L482.599 352.814L473.662 355.156L464.664 357.302L456.071 360.807L447.212 363.407L438.137 365.271L429.304 367.964L420.684 371.388L411.563 373.087L402.884 376.307L394.021 378.899L384.993 380.929L376.153 383.594L367.316 386.279L358.461 388.898L349.806 392.196L340.958 394.842L332.01 397.145L323.032 399.348L314.346 402.534L305.252 404.348L296.423 407.06L287.764 410.342L278.951 413.107L269.818 414.794L260.967 417.437L252.427 421.119L243.368 423.053L234.524 425.71L225.541 427.898L216.84 431.034L208.073 433.965L199.249 436.696L190.351 439.177L181.287 441.099L172.54 444.08L163.762 446.969L154.791 449.215L146.085 452.184L138.393 457.796L131.649 464.614L124.334 470.754L116.573 476.358L109.215 482.448L101.847 488.53L94.9983 494.701L103.985 495.179L113.275 496.238L122.585 497.093L131.868 498.218L141.24 498.326L150.488 499.897L159.825 500.113L168.815 498.025L177.678 495.417L186.287 491.951L195.185 489.443L204.264 487.556L212.961 484.394L221.709 481.389L230.545 478.685L239.512 476.409L248.31 473.585L257.231 471.162L266.098 468.558L275.068 466.305L283.727 463.008L292.591 460.381L301.496 457.916L310.532 455.874L319.168 452.504L328.066 450L337.126 448.047L345.827 444.881L354.833 442.743L363.426 439.227L372.405 437.004L381.179 434.084L390.181 431.939L399.106 429.528L407.788 426.323L416.724 423.95L425.649 421.551L434.558 419.078L443.121 415.465L452.219 413.631L460.92 410.473L469.757 407.765L478.666 405.307L487.413 402.31L496.319 399.834L505.378 397.869L514.099 394.78L522.958 392.145L531.964 390.015L540.769 387.2L549.54 384.28L558.388 381.603L567.212 378.853L576.121 376.388L584.842 373.287L593.671 370.552L602.561 368.029L611.632 366.111L620.51 363.545L629.215 360.399L638.098 357.837L646.838 354.798L655.974 353.088L664.568 349.559L673.543 347.31L682.421 344.737L691.373 342.399L698.487 337.985L701.877 330.489L701.804 322.412L699.338 314.122L696.958 305.81L693.206 298.326L685.68 294.389L677.502 295.526Z" stroke="black" stroke-width="5" stroke-miterlimit="10"/>
<path d="M387.801 213.99L396.822 212.561L405.897 211.759L415.029 211.69L424.081 210.569L433.179 210.103L442.281 209.699L451.36 208.751L460.477 208.72L469.591 208.805L478.697 209.186L487.795 209.344L496.9 209.51L505.991 210.034L515.05 210.943L524.033 212.426L533.089 213.454L541.979 215.423L550.865 217.487L559.593 220.18L567.64 224.567L576.272 227.614L583.991 232.494L591.39 237.79L598.936 242.929L605.238 249.538L611.701 255.948L617.44 263.301L623.834 270.092L630.228 276.906L635.217 284.844L641.661 291.655L646.306 299.805L651.695 307.397L657.727 314.562L662.634 322.496L667.58 330.396L672.476 338.347L676.62 346.671L679.444 355.148L676.601 363.465L670.199 369.739L662.291 374.119L654.044 377.027L645.382 378.217L636.715 377.092L628.249 374.801L620.348 370.833L613.858 365.602L621.369 362.744L629.177 360.11L637.112 358.08L632.139 350.823L627.401 343.254L622.586 335.72L616.886 328.825L611.116 322.007L605.449 315.12L600.057 307.99L594.04 301.392L587.843 294.959L581.499 288.658L574.411 283.2L567.382 277.692L559.558 273.397L551.589 269.433L542.549 266.305L533.096 264.826L523.675 263.278L514.18 262.215L504.639 261.695L495.09 261.394L485.537 261.337L475.985 261.079L466.444 261.845L456.876 261.56L447.35 262.365L437.813 262.939L428.299 263.771L418.789 264.611" fill="white"/>
<path d="M387.801 213.99L396.822 212.561L405.897 211.759L415.029 211.69L424.081 210.569L433.179 210.103L442.281 209.699L451.36 208.751L460.477 208.72L469.591 208.805L478.697 209.186L487.795 209.344L496.9 209.51L505.991 210.034L515.05 210.943L524.033 212.426L533.089 213.454L541.979 215.423L550.865 217.487L559.593 220.18L567.64 224.567L576.272 227.614L583.991 232.494L591.39 237.79L598.936 242.929L605.238 249.538L611.701 255.948L617.44 263.301L623.834 270.092L630.228 276.906L635.217 284.844L641.661 291.655L646.306 299.805L651.695 307.397L657.727 314.562L662.634 322.496L667.58 330.396L672.476 338.347L676.62 346.671L679.444 355.148L676.601 363.465L670.199 369.739L662.291 374.119L654.044 377.027L645.382 378.217L636.715 377.092L628.249 374.801L620.348 370.833L613.858 365.602L621.369 362.744L629.177 360.11L637.112 358.08L632.139 350.823L627.401 343.254L622.586 335.72L616.886 328.825L611.116 322.007L605.449 315.12L600.057 307.99L594.04 301.392L587.843 294.959L581.499 288.658L574.411 283.2L567.382 277.692L559.558 273.397L551.589 269.433L542.549 266.305L533.096 264.826L523.675 263.278L514.18 262.215L504.639 261.695L495.09 261.394L485.537 261.337L475.985 261.079L466.444 261.845L456.876 261.56L447.35 262.365L437.813 262.939L428.299 263.771L418.789 264.611" stroke="black" stroke-width="5" stroke-miterlimit="10"/>
<path d="M212.357 484.062C207.78 484.048 203.274 485.195 199.26 487.394C198.459 487.837 197.562 488.623 197.87 489.482C198.124 490.194 199.025 490.379 199.796 490.452L226.732 493.052" fill="white"/>
<path d="M212.357 484.062C207.78 484.048 203.274 485.195 199.26 487.394C198.459 487.837 197.562 488.623 197.87 489.482C198.124 490.194 199.025 490.379 199.796 490.452L226.732 493.052" stroke="black" stroke-width="5" stroke-miterlimit="10"/>
<path d="M262.508 494.508L252.897 496.034L243.318 497.594L233.642 496.55L224.652 493.002L215.985 488.804L209.086 482.055L203.339 474.329L199.268 465.843L201.244 456.583L209.548 452.15L218.82 451.364L227.937 453.078L236.192 457.438L242.409 464.375L250.247 469.371L259.364 470.111" fill="white"/>
<path d="M262.508 494.508L252.897 496.034L243.318 497.594L233.642 496.55L224.652 493.002L215.985 488.804L209.086 482.055L203.339 474.329L199.268 465.843L201.244 456.583L209.548 452.15L218.82 451.364L227.937 453.078L236.192 457.438L242.409 464.375L250.247 469.371L259.364 470.111" stroke="black" stroke-width="5" stroke-miterlimit="10"/>
<path d="M571.734 534.31L562.243 534.317L553.091 531.802L544.032 529.217L535.007 526.286L526.498 522.061L518.976 516.229L511.337 510.686L503.272 505.363L496.804 498.218L490.218 491.242L484.39 483.619L478.15 476.324L472.407 468.612L467.164 460.551L462.469 452.161L458.609 443.34L454.072 434.878L449.769 426.612L445.817 418.165L440.925 410.226L436.619 401.937L430.726 394.668L425.264 387.15L420.002 379.442L413.878 372.412L407.391 365.71L400.107 359.882L392.82 354.128L385.316 348.631L377.308 343.882L369.058 339.525L360.121 336.821L351.397 333.466L342.141 332.188L332.943 330.558L323.602 330.204L314.331 331.463L305.086 332.384L295.776 333.285L286.848 336.055L278.069 339.156L269.657 342.414L261.325 345.916L253.591 350.584L246.041 355.557L239.073 361.323L232.367 367.436L227.051 374.793L221.809 382.142L217.013 389.8L212.387 397.619L209.379 406.879L206.282 416.046L203.478 425.379L203.077 435.128L192.477 437.717L182.27 441.688L183.441 432.517L184.901 423.765L187.551 415.291L190.332 406.894L192.762 398.355L196.472 390.3L200.893 382.007L205.793 374.007L210.269 365.668L216.798 358.831L222.799 351.57L229.898 344.933L237.659 339.086L245.556 333.405L254.138 328.821L263.236 325.397L272.137 321.545L280.376 318.98L288.843 317.312L297.228 315.367L305.699 313.76L314.28 312.874L322.897 312.416L331.517 312.79L341.012 313.159L350.419 314.596L359.636 316.93L368.437 320.532L377.181 324.122L385.921 327.796L394.095 332.611L402.222 337.549L409.163 344.082L416.94 349.579L423.484 356.47L429.901 363.453L435.776 370.891L441.596 378.364L447.57 385.751L452.635 393.783L457.542 401.902L462.099 410.222L465.812 418.974L470.057 427.44L474.29 436.211L479.66 444.365L484.698 452.658L489.663 461.005L495.452 468.801L501.731 476.201L507.451 484.128L514.615 490.737L521.934 497.166L529.842 502.389L537.749 507.624L546.489 511.31L555.591 513.799L564.697 516.406L574.149 515.902L584.018 514.958L593.193 511.21L601.59 506.01L608.585 499.011L614.686 491.115L618.242 481.782L620.973 472.792L623.449 463.632L622.976 454.16L622.841 444.708L620.772 435.463L617.675 426.519L613.076 418.261L608.893 409.76L602.649 402.345L596.194 395.15L588.798 388.925L581.252 382.916L573.595 376.915L584.083 373.476L594.749 370.61L602.973 376.484L610.808 383.178L616.859 391.533L623.18 399.61L628.572 407.222L632.043 415.888L636.376 424.17L638.279 433.314L640.552 442.327L641.649 451.583L641.407 460.897L640.143 470.107L638.556 479.274L635.814 488.176L632.744 495.964L627.952 502.836L623.734 510.039L618.153 516.264L611.944 521.884L603.158 526.483L594.272 530.712L584.673 532.877L574.939 534.233L571.734 534.31Z" fill="white"/>
<path d="M571.734 534.31L562.243 534.317L553.091 531.802L544.032 529.217L535.007 526.286L526.498 522.061L518.976 516.229L511.337 510.686L503.272 505.363L496.804 498.218L490.218 491.242L484.39 483.619L478.15 476.324L472.407 468.612L467.164 460.551L462.469 452.161L458.609 443.34L454.072 434.878L449.769 426.612L445.817 418.165L440.925 410.226L436.619 401.937L430.726 394.668L425.264 387.15L420.002 379.442L413.878 372.412L407.391 365.71L400.107 359.882L392.82 354.128L385.316 348.631L377.308 343.882L369.058 339.525L360.121 336.821L351.397 333.466L342.141 332.188L332.943 330.558L323.602 330.204L314.331 331.463L305.086 332.384L295.776 333.285L286.848 336.055L278.069 339.156L269.657 342.414L261.325 345.916L253.591 350.584L246.041 355.557L239.073 361.323L232.367 367.436L227.051 374.793L221.809 382.142L217.013 389.8L212.387 397.619L209.379 406.879L206.282 416.046L203.478 425.379L203.077 435.128L192.477 437.717L182.27 441.688L183.441 432.517L184.901 423.765L187.551 415.291L190.332 406.894L192.762 398.355L196.472 390.3L200.893 382.007L205.793 374.007L210.269 365.668L216.798 358.831L222.799 351.57L229.898 344.933L237.659 339.086L245.556 333.405L254.138 328.821L263.236 325.397L272.137 321.545L280.376 318.98L288.843 317.312L297.228 315.367L305.699 313.76L314.28 312.874L322.897 312.416L331.517 312.79L341.012 313.159L350.419 314.596L359.636 316.93L368.437 320.532L377.181 324.122L385.921 327.796L394.095 332.611L402.222 337.549L409.163 344.082L416.94 349.579L423.484 356.47L429.901 363.453L435.776 370.891L441.596 378.364L447.57 385.751L452.635 393.783L457.542 401.902L462.099 410.222L465.812 418.974L470.057 427.44L474.29 436.211L479.66 444.365L484.698 452.658L489.663 461.005L495.452 468.801L501.731 476.201L507.451 484.128L514.615 490.737L521.934 497.166L529.842 502.389L537.749 507.624L546.489 511.31L555.591 513.799L564.697 516.406L574.149 515.902L584.018 514.958L593.193 511.21L601.59 506.01L608.585 499.011L614.686 491.115L618.242 481.782L620.973 472.792L623.449 463.632L622.976 454.16L622.841 444.708L620.772 435.463L617.675 426.519L613.076 418.261L608.893 409.76L602.649 402.345L596.194 395.15L588.798 388.925L581.252 382.916L573.595 376.915L584.083 373.476L594.749 370.61L602.973 376.484L610.808 383.178L616.859 391.533L623.18 399.61L628.572 407.222L632.043 415.888L636.376 424.17L638.279 433.314L640.552 442.327L641.649 451.583L641.407 460.897L640.143 470.107L638.556 479.274L635.814 488.176L632.744 495.964L627.952 502.836L623.734 510.039L618.153 516.264L611.944 521.884L603.158 526.483L594.272 530.712L584.673 532.877L574.939 534.233L571.734 534.31Z" stroke="black" stroke-width="5" stroke-miterlimit="10"/>
<path d="M710.794 218.65L701.434 221.089L692.047 221.663L682.675 221.543L673.273 221.004L664.04 219.109L655.073 216.216L646.345 213.905L638.314 209.714L631.299 204.006L624.582 198.02L617.722 192.169L610.761 186.052L604.082 179.604L596.344 174.473L588.49 169.609L580.482 164.89L571.511 162.433L562.775 159.212L553.496 158.496L544.325 156.924L535.13 157.337L525.97 157.86L516.834 158.97L508.063 161.755L499.427 164.844L491.531 169.493L483.404 173.796L476.855 180.247L470.8 186.518L464.999 193.155L461.182 201.097L457.546 209.294L466.871 209.714L476.208 209.633L480.103 201.953L486.169 195.327L492.918 189.503L500.367 184.642L508.183 180.259L516.838 177.952L525.589 176.18L534.487 175.228L543.435 175.487L552.255 176.06L560.83 178.191L569.173 180.91L577.235 184.342L585.2 188.186L592.145 193.656L598.512 199.769L605.619 205.084L612.183 211.182L618.465 217.626L625.699 222.961L633.765 226.928L641.453 231.62L650.15 233.908L659.661 236.342L669.19 238.838L678.97 240.032L688.811 240.409L698.225 239.959L707.404 237.871L716.14 235.937L713.467 227.421L710.794 218.65Z" fill="white"/>
<path d="M710.794 218.65L701.434 221.089L692.047 221.663L682.675 221.543L673.273 221.004L664.04 219.109L655.073 216.216L646.345 213.905L638.314 209.714L631.299 204.006L624.582 198.02L617.722 192.169L610.761 186.052L604.082 179.604L596.344 174.473L588.49 169.609L580.482 164.89L571.511 162.433L562.775 159.212L553.496 158.496L544.325 156.924L535.13 157.337L525.97 157.86L516.834 158.97L508.063 161.755L499.427 164.844L491.531 169.493L483.404 173.796L476.855 180.247L470.8 186.518L464.999 193.155L461.182 201.097L457.546 209.294L466.871 209.714L476.208 209.633L480.103 201.953L486.169 195.327L492.918 189.503L500.367 184.642L508.183 180.259L516.838 177.952L525.589 176.18L534.487 175.228L543.435 175.487L552.255 176.06L560.83 178.191L569.173 180.91L577.235 184.342L585.2 188.186L592.145 193.656L598.512 199.769L605.619 205.084L612.183 211.182L618.465 217.626L625.699 222.961L633.765 226.928L641.453 231.62L650.15 233.908L659.661 236.342L669.19 238.838L678.97 240.032L688.811 240.409L698.225 239.959L707.404 237.871L716.14 235.937L713.467 227.421L710.794 218.65Z" stroke="black" stroke-width="5" stroke-miterlimit="10"/>
<path d="M361.338 636.865L359.004 645.031L352.957 651.406L344.648 655.52L335.689 657.796L326.602 659.352L317.408 659.976L308.198 659.718L298.988 659.218L289.898 657.646L280.823 655.932L271.991 653.228L263.359 649.977L254.7 646.795L246.384 642.786L238.249 638.429L229.694 634.092L220.904 630.267L211.883 627.016L202.746 624.1L193.317 622.348L183.914 620.426L174.346 619.763L164.763 619.513L155.191 620.017L145.608 621.13L143.793 612.206L142.549 603.266L137.515 609.891L131.695 615.965L126.406 622.479L121.345 629.185L116.045 635.471L123.024 639.808L130.42 643.791L137.295 648.636L144.845 652.361L151.878 656.964L150.026 648.009L148.72 638.949L159.559 637.659L170.441 637.597L179.223 638.56L188.028 639.35L196.729 641.002L205.18 643.652L213.385 646.942L221.439 650.543L229.539 654.11L237.559 658.266L245.582 662.445L254.026 665.689L262.538 668.697L271.047 671.744L279.829 673.885L288.646 675.9L297.621 676.963L306.588 678.223L314.588 677.895L324.588 677.695L334.479 676.25L344.371 674.617L353.773 671.12L362.756 666.628L369.758 660.485L375.267 653.062L379.041 644.611L379.75 635.355" fill="white"/>
<path d="M361.338 636.865L359.004 645.031L352.957 651.406L344.648 655.52L335.689 657.796L326.602 659.352L317.408 659.976L308.198 659.718L298.988 659.218L289.898 657.646L280.823 655.932L271.991 653.228L263.359 649.977L254.7 646.795L246.384 642.786L238.249 638.429L229.694 634.092L220.904 630.267L211.883 627.016L202.746 624.1L193.317 622.348L183.914 620.426L174.346 619.763L164.763 619.513L155.191 620.017L145.608 621.13L143.793 612.206L142.549 603.266L137.515 609.891L131.695 615.965L126.406 622.479L121.345 629.185L116.045 635.471L123.024 639.808L130.42 643.791L137.295 648.636L144.845 652.361L151.878 656.964L150.026 648.009L148.72 638.949L159.559 637.659L170.441 637.597L179.223 638.56L188.028 639.35L196.729 641.002L205.18 643.652L213.385 646.942L221.439 650.543L229.539 654.11L237.559 658.266L245.582 662.445L254.026 665.689L262.538 668.697L271.047 671.744L279.829 673.885L288.646 675.9L297.621 676.963L306.588 678.223L314.588 677.895L324.588 677.695L334.479 676.25L344.371 674.617L353.773 671.12L362.756 666.628L369.758 660.485L375.267 653.062L379.041 644.611L379.75 635.355" stroke="black" stroke-width="5" stroke-miterlimit="10"/>
<path d="M267.411 196.059C258.764 192.639 252.004 184.377 250.964 175.132C262.669 172.405 272.357 164.347 283.997 161.339C313.903 153.608 330.011 170.583 331.706 190.228C332.477 198.933 334.402 201.356 340.026 209.406C334.818 212.083 325.135 215.889 318.583 216.039C318.802 213.1 318.968 210.115 318.352 207.233C317.735 204.352 316.256 201.544 313.803 199.915C311.349 198.286 307.832 198.112 305.544 199.969C303.514 201.621 302.817 204.495 303.133 207.091C303.449 209.687 304.62 212.098 305.772 214.444L300.764 217.083C300.567 214.511 299.791 212.018 298.494 209.789C297.197 207.56 295.414 205.653 293.276 204.21C290.245 202.199 286.659 201.228 283.146 200.289L267.411 196.059Z" fill="black" stroke="black" stroke-width="5" stroke-miterlimit="10"/>
<path d="M343.266 255.628C348.369 243.213 351.062 229.939 351.2 216.516" stroke="black" stroke-width="5" stroke-miterlimit="10"/>
<path d="M359.975 271.941C370.172 255.183 375.365 235.859 374.943 216.247" stroke="black" stroke-width="5" stroke-miterlimit="10"/>
<path d="M345.388 250.143C353.041 252.144 360.324 255.36 366.958 259.669" stroke="black" stroke-width="5" stroke-miterlimit="10"/>
<path d="M347.884 243.503L370.471 248.937" stroke="black" stroke-width="5" stroke-miterlimit="10"/>
<path d="M349.236 236.284L372.335 240.105" stroke="black" stroke-width="5" stroke-miterlimit="10"/>
<path d="M350.26 229.428L373.63 230.106" stroke="black" stroke-width="5" stroke-miterlimit="10"/>
<path d="M351.817 222.687L374.412 221.609" stroke="black" stroke-width="5" stroke-miterlimit="10"/>
<path d="M632.089 350.133C643.93 343.053 656.92 338.099 670.469 335.496" stroke="black" stroke-width="5" stroke-miterlimit="10"/>
<path d="M263.016 495.444C270.336 487.024 275.135 476.711 276.864 465.689" stroke="black" stroke-width="5" stroke-miterlimit="10"/>
<path d="M297.648 714.557L345.376 716.672" stroke="black" stroke-width="5" stroke-miterlimit="10"/>
<path d="M679.228 555.175C693.186 560.582 704.875 570.601 712.354 583.567" stroke="black" stroke-width="5" stroke-miterlimit="10"/>
<path d="M539.086 214.933C534.699 221.709 535.473 231.392 540.877 237.386C544.043 240.899 548.404 243.056 552.656 245.128L569.119 253.163C573.903 255.497 578.853 257.878 584.172 258.17C591.764 258.556 599.398 254.18 602.881 247.42" stroke="black" stroke-width="5" stroke-miterlimit="10"/>
<path d="M203.601 455.982C206.395 467.107 213.257 476.78 222.834 483.092" stroke="black" stroke-width="5" stroke-miterlimit="10"/>
<path d="M210.985 452.281C215.025 464.561 223.356 474.973 234.451 481.609" stroke="black" stroke-width="5" stroke-miterlimit="10"/>
<path d="M222.117 451.868C226.204 461.608 233.366 469.742 242.509 475.03" stroke="black" stroke-width="5" stroke-miterlimit="10"/>
<path d="M421.535 716.568L430.726 716.753L439.966 716.475L449.199 716.957L458.436 716.876L467.673 716.66L476.909 716.217L486.146 716.799L495.383 716.545L504.62 716.884L513.86 716.66L523.097 716.244L532.334 716.375L541.57 716.591L550.807 716.468L560.044 716.876L569.281 716.78H578.517L587.754 716.86L596.995 716.656L606.231 716.687L615.472 716.452L624.713 716.783L634.234 716.772L630.225 707.843L626.804 698.992L623.807 689.971L620.668 681.011L616.685 672.372L613.303 663.501L610.326 654.472L606.786 645.663L603.678 636.684L600.084 627.894L596.837 618.97L593.127 610.207L585.466 615.295L577.327 619.578L569.697 624.69L561.981 629.662L554.124 634.4L546.139 638.934L538.685 644.338L530.889 649.18L522.974 653.829L515.22 658.74L507.297 663.366L499.485 668.188L491.704 673.053L483.908 677.895L475.927 682.44L468.135 687.29L460.589 692.536L452.708 697.243L445.005 702.243L436.919 706.622L429.435 711.969L421.535 716.568Z" fill="white"/>
<path d="M411.844 709.538L421.034 709.723L430.271 709.446L439.508 709.923L448.745 709.842L457.981 709.631L467.214 709.188L476.451 709.769L485.691 709.515L494.928 709.854L504.165 709.631L513.402 709.215L522.638 709.345L531.875 709.561L541.116 709.438L550.349 709.846L559.585 709.746L568.826 709.75L578.063 709.831L587.299 709.627L596.54 709.657L605.777 709.423L615.017 709.754L624.543 709.738L620.533 700.814L617.109 691.962L614.116 682.941L610.973 673.978L606.99 665.338L603.608 656.471L600.631 647.442L597.091 638.629L593.986 629.655L590.389 620.865L587.142 611.94L583.436 603.173L575.775 608.265L567.632 612.545L560.005 617.66L552.29 622.633L544.432 627.37L536.443 631.904L528.994 637.304L521.198 642.146L513.282 646.799L505.529 651.706L497.601 656.336L489.794 661.159L482.009 666.024L474.213 670.866L466.232 675.411L458.443 680.26L450.894 685.506L443.013 690.213L435.313 695.213L427.224 699.593L419.74 704.939L411.844 709.538Z" stroke="black" stroke-width="5" stroke-miterlimit="10"/>
</svg>
