<svg width="2861" height="2268" viewBox="0 0 2861 2268" fill="none" xmlns="http://www.w3.org/2000/svg">
<path d="M0 1810.18L39.8873 1815.38L78.6993 1823.08L118.267 1828.02L157.315 1834.84L196.345 1841.72L235.611 1847.7L274.49 1855.14L314.193 1859.57L352.988 1867.32L392.556 1872.24L431.267 1880.27L470.768 1885.45L509.916 1891.91L549.35 1897.34L588.582 1903.46L627.579 1910.46L666.777 1916.75L706.177 1922.26L745.174 1929.26L784.389 1935.47L823.722 1941.3L862.417 1949.39L901.632 1955.62L941.099 1960.92L980.045 1968.09L1019.75 1972.57L1058.68 1979.77L1097.78 1986.45L1136.92 1992.92L1176.24 1998.79L1215.32 2005.48L1254.4 2012.2L1294.05 2016.78L1333.29 2022.96L1372.48 2029.21L1411.51 2036.12L1450.88 2041.79L1489.54 2050.08L1529.06 2055.17L1568.48 2060.62L1607.52 2067.39L1646.44 2074.77L1686.14 2079.16L1725.22 2085.86L1764.55 2091.61L1803.16 2100.08L1842.41 2106.14L1881.49 2112.87L1920.77 2118.81L1959.94 2125.24L1999.17 2131.38L2038.79 2136.18L2077.7 2143.49L2117.04 2149.26L2156.35 2155.15L2195.4 2161.95L2234.35 2169.17L2273.53 2175.53L2312.94 2181.05L2352.55 2185.85L2391.11 2194.51L2430.88 2198.71L2470.11 2204.9L2509.1 2211.95L2548.37 2217.94L2587.5 2224.51L2626.95 2229.85L2665.95 2236.95L2705.11 2243.37L2743.99 2250.85L2783.28 2256.84L2822.44 2263.36L2861 2268L2857.69 2237.9L2850.15 2207.46L2845.81 2176.65L2838.45 2146.18L2834.29 2115.36L2827.25 2084.86L2821.2 2054.24L2815.38 2023.59L2810.29 1992.88L2805.07 1962.18L2798.77 1931.58L2794.48 1900.77L2789.21 1870.07L2781.43 1839.65L2775.01 1809.06L2771.75 1778.14L2765.38 1747.57L2760.07 1716.87L2754.12 1686.24L2748.75 1655.55L2743.74 1624.81L2735.12 1594.49L2729.95 1563.77L2725.86 1532.94L2719.19 1502.39L2712.72 1471.82L2707.65 1441.09L2702.63 1410.36L2697.17 1379.67L2692.48 1348.91L2686.28 1318.31L2680.03 1287.71L2672.69 1257.24L2669.36 1226.32L2661.78 1195.87L2658.02 1165L2649.67 1134.64L2645.08 1103.86L2638.23 1073.32L2633.08 1042.61L2627.59 1011.93L2623.14 981.14L2616.52 950.592L2612.5 919.748L2604.03 889.394L2599.77 858.589L2595.58 827.771L2586.9 797.442L2583.6 766.521L2578.36 735.819L2571.51 705.284L2564.03 674.827L2558.4 644.151L2552.87 613.474L2549.75 582.541L2542.56 552.044L2536.94 521.381L2531.17 490.73L2526.11 460.003L2521.76 429.185L2513.78 398.779L2507.24 368.205L2504.43 337.233L2496.02 306.866L2493.24 275.894L2486.34 245.359L2480.69 214.695L2473.33 184.225L2469.33 153.369L2462.24 122.859L2457.54 92.0803L2450.11 61.6098L2445.39 30.8306L2440.37 0L2410.43 20.9653L2382.74 43.5899L2353.81 65.2112L2324.74 86.7296L2295.74 108.312L2266.08 129.381L2238.06 151.722L2208.12 172.559L2178.65 193.756L2149.38 215.133L2121.91 237.924L2092.24 258.967L2063.62 280.858L2033.06 301.206L2004.04 322.776L1975.23 344.488L1947.72 367.267L1918.69 388.823L1888.3 409.3L1858.68 430.381L1830.23 452.401L1802.07 474.64L1772.92 496.107L1744.09 517.818L1713.76 538.359L1685.01 560.135L1655.02 580.933L1626.14 602.606L1598.72 625.436L1569.58 646.929L1540.27 668.241L1510.19 688.988L1482.52 711.613L1453.37 733.067L1423.86 754.264L1394.26 775.37L1365.81 797.39L1336.53 818.742L1308.13 840.8L1277.62 861.187L1249.23 883.258L1219.82 904.507L1192.02 927.028L1161.97 947.788L1133.95 970.129L1103.82 990.812L1074.45 1012.1L1046.92 1034.83L1017.33 1055.96L987.304 1076.72L958.573 1098.51L929.523 1120.05L901.296 1142.25L873.119 1164.48L842.456 1184.75L814.935 1207.5L785.767 1228.97L755.692 1249.69L727.717 1272.08L698.448 1293.46L667.583 1313.58L640.701 1336.83L610.726 1357.67L582.029 1379.48L552.004 1400.25L524.315 1422.88L494.828 1444.09L464.971 1465L436.526 1487.03L408.215 1509.17L378.711 1530.37L350.249 1552.36L320.98 1573.74L292.048 1595.39L262.023 1616.17L232.267 1637.16L203.368 1658.82L174.738 1680.71L146.494 1702.91L116.907 1724.03L87.5875 1745.38L57.882 1766.44L29.3022 1788.38L0 1810.18Z" fill="#FFEAAF"/>
</svg>
