<svg width="100" height="100" viewBox="0 0 100 100" fill="none" xmlns="http://www.w3.org/2000/svg">
<path fill-rule="evenodd" clip-rule="evenodd" d="M21.9257 37.8616C20.2943 37.8295 17.5777 37.315 15.0903 37.1623C12.9316 37.0301 10.9021 37.202 9.50368 37.8148C8.12256 38.418 7.11704 39.4913 6.41624 40.8343C5.7078 42.2041 5.34125 43.8863 4.99367 45.2043C3.5358 50.7453 2.58926 56.4225 1.30137 62C0.96744 63.4237 1.85615 64.8538 3.27986 65.1877C4.71241 65.5212 6.13348 64.6239 6.46741 63.2001C7.74887 57.6761 8.68876 52.0437 10.1314 46.5566C10.358 45.6958 10.5575 44.6324 10.9485 43.6845C11.1073 43.2786 11.2383 42.8476 11.6205 42.6796C12.4113 42.3424 13.5562 42.3878 14.7733 42.4653C17.3407 42.6233 20.1459 43.1426 21.8304 43.1723C23.2935 43.2033 24.5069 42.0319 24.5291 40.5692C24.56 39.1061 23.3977 37.8922 21.9257 37.8616Z" fill="black"/>
<path fill-rule="evenodd" clip-rule="evenodd" d="M21.22 49.367C17.2257 49.584 13.15 49.5653 9.14444 49.5348C7.68216 49.5215 6.47771 50.7014 6.46445 52.1637C6.46043 53.6344 7.63106 54.8302 9.10219 54.8431C13.2142 54.8776 17.405 54.8911 21.5053 54.6692C22.9724 54.5937 24.0935 53.3379 24.0092 51.8712C23.934 50.413 22.6783 49.2919 21.22 49.367Z" fill="black"/>
<path fill-rule="evenodd" clip-rule="evenodd" d="M27.6933 43.6759C27.5036 45.1551 27.2059 47.3744 27.0962 47.8843C26.1523 52.2591 25.2081 56.6252 24.2103 60.9848C23.8768 62.4173 24.7739 63.8382 26.1976 64.1721C27.6298 64.4968 29.0513 63.6083 29.3848 62.1757C30.3902 57.7892 31.3425 53.4052 32.2852 49.0039C32.4608 48.1898 33.0069 44.6126 33.1476 43.0294C33.234 42.0067 33.0519 41.3152 32.9811 41.1236C32.7007 40.4099 32.2406 40.0321 31.858 39.8015C31.0841 39.3406 30.2202 39.2381 29.2679 39.7243C29.1035 39.8115 28.1434 40.3246 27.6519 42.1807C27.5157 42.6919 27.539 43.2046 27.6933 43.6759Z" fill="black"/>
<path fill-rule="evenodd" clip-rule="evenodd" d="M39.9461 54.3923C43.6507 52.6736 46.3482 48.8746 46.8465 45.4148C47.1692 43.1589 46.6302 41.0486 45.1852 39.4666C43.8805 38.0465 41.7495 36.965 38.4448 36.9557C36.7615 36.9525 35.1755 37.5297 33.6368 38.1754C31.8639 38.9293 30.0665 39.9234 28.6846 41.2885C27.6418 42.3192 27.6386 44.0025 28.6694 45.0452C29.7001 46.088 31.3834 46.0912 32.4261 45.0605C33.3246 44.1692 34.5374 43.5648 35.702 43.0689C36.58 42.7012 37.4635 42.2624 38.4384 42.2713C39.9621 42.2729 40.974 42.5104 41.4152 43.2521C41.7897 43.8907 41.6506 44.7298 41.3689 45.5487C40.7573 47.2951 39.2584 49.011 37.3509 49.7266C35.5559 50.3841 33.9305 50.2897 32.0764 50.2322C29.7783 50.1506 29.3708 51.9054 29.2752 52.335C29.1357 52.9703 29.0936 53.9909 30.1187 54.9099C30.2569 55.0277 30.5599 55.2619 31.0204 55.4535C31.364 55.6062 32.0829 55.8306 32.3907 55.9761C33.2048 56.3466 34.0387 56.7603 34.7962 57.2485C37.1871 58.7876 39.3992 60.6804 40.9531 63.099C41.7355 64.3303 43.3819 64.6894 44.6127 63.8981C45.8528 63.1154 46.2119 61.4692 45.4207 60.2384C43.9708 57.9656 42.067 56.0322 39.9461 54.3923Z" fill="black"/>
<path fill-rule="evenodd" clip-rule="evenodd" d="M71.8435 36.1444C69.6583 36.0134 66.3363 35.2342 63.2939 35.151C60.6506 35.0763 58.2 35.5332 56.4411 36.7913C54.3649 38.2765 52.9992 40.5888 52.1192 43.2509C51.0535 46.5062 50.7309 50.3213 50.1756 53.1105C49.9091 54.4602 49.5195 56.0192 49.6195 57.441C49.7112 58.8719 50.2147 60.2046 51.3551 61.3221C52.8752 62.8033 55.0089 63.5566 57.3754 63.7768C60.1332 64.0323 63.2129 63.5734 65.3836 63.3862C66.8483 63.2576 67.9235 61.9686 67.795 60.5039C67.6668 59.048 66.3774 57.9638 64.9215 58.0919C63.2981 58.2366 61.0989 58.5759 58.9804 58.5482C57.4823 58.5277 55.9982 58.4268 55.0623 57.5214C54.7473 57.2168 54.8955 56.776 54.9478 56.3661C55.0462 55.6086 55.2504 54.8375 55.3871 54.1403C55.8267 51.9234 56.0939 49.0322 56.7597 46.3354C57.2757 44.239 57.9723 42.223 59.5255 41.116C60.7523 40.2363 62.6278 40.3726 64.4959 40.5446C67.0846 40.7813 69.7141 41.3349 71.5437 41.4378C73.0003 41.5222 74.2605 40.4019 74.3449 38.9453C74.4289 37.4798 73.309 36.2284 71.8435 36.1444Z" fill="black"/>
<path fill-rule="evenodd" clip-rule="evenodd" d="M68.292 47.0845C64.2491 46.8164 60.1866 47.0897 56.1417 47.1672C54.681 47.1893 53.5136 48.403 53.5361 49.8725C53.567 51.3328 54.7805 52.5002 56.2408 52.4693C60.1354 52.3986 64.0563 52.1229 67.9481 52.3801C69.4052 52.4733 70.6744 51.3613 70.7677 49.9042C70.8605 48.4383 69.7579 47.1773 68.292 47.0845Z" fill="black"/>
<path fill-rule="evenodd" clip-rule="evenodd" d="M79.4602 55.7115C79.4759 55.4716 79.511 55.0714 79.5616 54.821C79.7263 53.9631 79.9633 53.1373 80.0349 52.5671C80.3431 50.3827 80.6349 47.6411 81.2975 45.0685C81.8476 42.944 82.6058 40.9163 84.0814 39.6622C84.4651 39.3347 85.0092 39.2214 85.6075 39.1322C86.5659 38.9734 87.6465 38.9686 88.7383 39.0165C91.4447 39.1149 94.2062 39.4499 95.9325 39.2297C97.3859 39.0485 98.415 37.7172 98.2338 36.2638C98.0437 34.8107 96.7125 33.7816 95.259 33.9628C93.3921 34.2072 90.1597 33.6454 87.2914 33.6872C84.6087 33.7206 82.19 34.3001 80.6461 35.6105C78.8037 37.1736 77.533 39.4283 76.6743 41.9744C75.5909 45.2305 75.1848 48.9607 74.7837 51.8315C74.6282 52.8927 74.0328 54.7978 74.1441 56.2722C74.2385 57.5701 74.7311 58.6638 75.6172 59.4474C77.2137 60.8542 79.3442 61.5371 81.6737 61.7235C84.421 61.9441 87.4552 61.4606 89.6954 61.2436C91.1597 61.1062 92.2259 59.8088 92.0884 58.3445C91.9514 56.889 90.6536 55.814 89.1985 55.9599C87.5048 56.1166 85.3155 56.4819 83.1978 56.4718C81.8248 56.4722 80.4652 56.3834 79.4602 55.7115Z" fill="black"/>
<path fill-rule="evenodd" clip-rule="evenodd" d="M94.1888 46.1467C89.7553 46.0559 85.383 45.9447 80.9636 46.1633C79.4965 46.2388 78.3661 47.4862 78.4417 48.9533C78.5168 50.4115 79.7639 51.5419 81.231 51.4664C85.5267 51.2534 89.7749 51.3614 94.0754 51.4494C95.5385 51.4803 96.7526 50.318 96.7835 48.8549C96.8141 47.383 95.6515 46.1688 94.1888 46.1467Z" fill="black"/>
</svg>
