<svg width="2861" height="2963" viewBox="0 0 2861 2963" fill="none" xmlns="http://www.w3.org/2000/svg">
<path d="M0 2364.63L39.8873 2371.41L78.6993 2381.48L118.267 2387.93L157.315 2396.84L196.345 2405.82L235.611 2413.64L274.49 2423.35L314.193 2429.15L352.988 2439.26L392.556 2445.7L431.267 2456.18L470.768 2462.95L509.916 2471.39L549.35 2478.48L588.582 2486.47L627.579 2495.61L666.777 2503.83L706.177 2511.04L745.174 2520.18L784.389 2528.29L823.722 2535.9L862.417 2546.47L901.632 2554.6L941.099 2561.53L980.045 2570.9L1019.75 2576.75L1058.68 2586.16L1097.78 2594.88L1136.92 2603.33L1176.24 2611.01L1215.32 2619.74L1254.4 2628.51L1294.05 2634.5L1333.29 2642.58L1372.48 2650.74L1411.51 2659.77L1450.88 2667.18L1489.54 2678L1529.06 2684.65L1568.48 2691.77L1607.52 2700.61L1646.44 2710.26L1686.14 2715.98L1725.22 2724.74L1764.55 2732.25L1803.16 2743.32L1842.41 2751.23L1881.49 2760.02L1920.77 2767.78L1959.94 2776.19L1999.17 2784.2L2038.79 2790.47L2077.7 2800.03L2117.04 2807.55L2156.35 2815.25L2195.4 2824.14L2234.35 2833.56L2273.53 2841.88L2312.94 2849.09L2352.55 2855.36L2391.11 2866.66L2430.88 2872.16L2470.11 2880.24L2509.1 2889.45L2548.37 2897.28L2587.5 2905.86L2626.95 2912.83L2665.95 2922.11L2705.11 2930.49L2743.99 2940.27L2783.28 2948.08L2822.44 2956.6L2861 2962.67L2857.69 2923.35L2850.15 2883.58L2845.81 2843.34L2838.45 2803.54L2834.29 2763.28L2827.25 2723.43L2821.2 2683.44L2815.38 2643.4L2810.29 2603.28L2805.07 2563.17L2798.77 2523.2L2794.48 2482.96L2789.21 2442.86L2781.43 2403.12L2775.01 2363.16L2771.75 2322.77L2765.38 2282.84L2760.07 2242.73L2754.12 2202.73L2748.75 2162.64L2743.74 2122.48L2735.12 2082.86L2729.95 2042.74L2725.86 2002.47L2719.19 1962.56L2712.72 1922.62L2707.65 1882.48L2702.63 1842.34L2697.17 1802.26L2692.48 1762.07L2686.28 1722.09L2680.03 1682.12L2672.69 1642.32L2669.36 1601.93L2661.78 1562.16L2658.02 1521.83L2649.67 1482.17L2645.08 1441.96L2638.23 1402.07L2633.08 1361.95L2627.59 1321.88L2623.14 1281.65L2616.52 1241.75L2612.5 1201.46L2604.03 1161.81L2599.77 1121.57L2595.58 1081.31L2586.9 1041.69L2583.6 1001.3L2578.36 961.194L2571.51 921.307L2564.03 881.52L2558.4 841.448L2552.87 801.376L2549.75 760.968L2542.56 721.131L2536.94 681.075L2531.17 641.037L2526.11 600.897L2521.76 560.641L2513.78 520.921L2507.24 480.983L2504.43 440.525L2496.02 400.856L2493.24 360.397L2486.34 320.51L2480.69 280.455L2473.33 240.651L2469.33 200.344L2462.24 160.49L2457.54 120.284L2450.11 80.4803L2445.39 40.2738L2440.37 0L2410.43 27.3868L2382.74 56.9411L2353.81 85.1848L2324.74 113.294L2295.74 141.487L2266.08 169.009L2238.06 198.193L2208.12 225.412L2178.65 253.101L2149.38 281.026L2121.91 310.799L2092.24 338.286L2063.62 366.883L2033.06 393.463L2004.04 421.64L1975.23 450.001L1947.72 479.757L1918.69 507.917L1888.3 534.665L1858.68 562.203L1830.23 590.968L1802.07 620.018L1772.92 648.06L1744.09 676.421L1713.76 703.254L1685.01 731.699L1655.02 758.867L1626.14 787.178L1598.72 817.001L1569.58 845.077L1540.27 872.918L1510.19 900.019L1482.52 929.573L1453.37 957.598L1423.86 985.288L1394.26 1012.86L1365.81 1041.62L1336.53 1069.51L1308.13 1098.33L1277.62 1124.96L1249.23 1153.79L1219.82 1181.55L1192.02 1210.97L1161.97 1238.09L1133.95 1267.27L1103.82 1294.29L1074.45 1322.1L1046.92 1351.78L1017.33 1379.39L987.304 1406.51L958.573 1434.97L929.523 1463.11L901.296 1492.11L873.119 1521.15L842.456 1547.63L814.935 1577.35L785.767 1605.39L755.692 1632.46L727.717 1661.71L698.448 1689.63L667.583 1715.91L640.701 1746.29L610.726 1773.51L582.029 1802L552.004 1829.14L524.315 1858.69L494.828 1886.4L464.971 1913.72L436.526 1942.5L408.215 1971.42L378.711 1999.1L350.249 2027.84L320.98 2055.76L292.048 2084.04L262.023 2111.19L232.267 2138.61L203.368 2166.9L174.738 2195.5L146.494 2224.5L116.907 2252.09L87.5875 2279.98L57.882 2307.48L29.3022 2336.15L0 2364.63Z" fill="#FFC32D"/>
</svg>
