<svg width="15" height="16" viewBox="0 0 15 16" fill="none" xmlns="http://www.w3.org/2000/svg">
<path fill-rule="evenodd" clip-rule="evenodd" d="M9.98121 14.9311C11.4135 14.5398 12.913 14.3424 14.3677 14.1616C14.681 14.1236 14.9719 14.3352 14.9943 14.6333C15.039 14.9316 14.8151 15.2044 14.5242 15.2423C13.1143 15.4164 11.6598 15.6026 10.2946 15.9794C10.0037 16.0611 9.69023 15.8929 9.60071 15.6035C9.5112 15.3144 9.69027 15.0131 9.98121 14.9311Z" fill="#FFF500"/>
<path fill-rule="evenodd" clip-rule="evenodd" d="M5.63978 9.38314C7.94486 7.09296 10.5409 5.09757 12.8012 2.74595C13.0026 2.52632 13.3607 2.51455 13.5845 2.71958C13.8083 2.92483 13.8306 3.26996 13.6068 3.48958C11.3464 5.84796 8.75044 7.84989 6.44536 10.1468C6.22156 10.3612 5.86358 10.3643 5.63978 10.1534C5.43837 9.94266 5.41599 9.59754 5.63978 9.38314Z" fill="#FFF500"/>
<path fill-rule="evenodd" clip-rule="evenodd" d="M1.32025 0.574291C1.25312 1.88508 1.18611 3.19587 1.11897 4.50689C1.11897 4.80713 0.850287 5.03896 0.536975 5.02436C0.223663 5.00954 1.19209e-07 4.75397 1.19209e-07 4.4535C0.0671384 3.14053 0.134145 1.82778 0.201284 0.515026C0.223663 0.214781 0.49226 -0.0155228 0.805572 0.000818554C1.0965 0.0171599 1.34263 0.274264 1.32025 0.574291Z" fill="#FFF500"/>
</svg>
