<svg width="100" height="51" viewBox="0 0 100 51" fill="none" xmlns="http://www.w3.org/2000/svg">
<path fill-rule="evenodd" clip-rule="evenodd" d="M94.6786 7.46984C75.9099 42.3698 38.4175 56.5585 3.59532 36.9107C2.43608 36.2565 0.966034 36.6655 0.311788 37.8104C-0.342457 38.9758 0.0664902 40.4478 1.22573 41.1021C38.5505 62.181 78.8049 47.1539 98.923 9.75969C99.5527 8.59431 99.1132 7.12206 97.9416 6.48826C96.7701 5.8749 95.3083 6.30446 94.6786 7.46984Z" fill="black"/>
<path d="M32.8992 21.9428C36.7762 21.9428 39.9192 18.7999 39.9192 14.9229C39.9192 11.0459 36.7762 7.90308 32.8992 7.90308C29.0222 7.90308 25.8793 11.0459 25.8793 14.9229C25.8793 18.7999 29.0222 21.9428 32.8992 21.9428Z" fill="black"/>
<path d="M61.9605 14.4754C65.7617 14.4754 68.8433 11.394 68.8433 7.59275C68.8433 3.79153 65.7617 0.710083 61.9605 0.710083C58.1593 0.710083 55.0778 3.79153 55.0778 7.59275C55.0778 11.394 58.1593 14.4754 61.9605 14.4754Z" fill="black"/>
</svg>
