<svg width="398" height="53" viewBox="0 0 398 53" fill="none" xmlns="http://www.w3.org/2000/svg">
<path fill-rule="evenodd" clip-rule="evenodd" d="M147.705 22.287C145.263 23.0706 142.835 23.8947 140.421 24.7623C139.542 25.0778 138.986 26.235 139.177 27.3457L139.188 27.3893C126.183 28.2957 113.177 29.3613 100.175 30.5903C81.3922 32.3665 62.4796 34.7203 43.7349 37.8723C25.2107 40.9871 20.0938 41.8049 4.12204 46.3016C3.66528 46.4302 2.78818 46.4651 2.31302 46.6571C1.86117 46.8394 1.53459 47.1353 1.32307 47.4198C1.05221 47.7805 0.892616 48.1887 0.819911 48.6306C0.742727 49.1121 0.751941 49.6955 1.05902 50.333C1.92549 52.1223 3.37285 52.5561 5.15708 52.0853C6.69227 51.68 8.56295 50.4133 10.0138 50.2098C34.1658 46.8249 58.306 43.197 82.4597 39.8569C119.436 34.7439 156.267 31.411 193.092 28.7143C231.779 27.3099 270.422 27.2687 308.974 28.4879C334.082 29.2806 359.118 31.0399 384.183 32.4286C384.161 32.5715 384.155 32.7198 384.158 32.8708C384.19 34.0197 384.948 34.8603 385.846 34.7476C386.756 34.6332 394.868 33.951 396.372 33.4067C397.233 33.0948 397.581 32.4001 397.697 32.1042C398.014 31.2927 398.047 30.4258 397.392 29.6315C397.262 29.4793 397.019 29.2292 396.567 29.0836C396.181 28.9555 395.221 28.8159 393.472 28.7285C365.398 27.2943 337.37 25.1957 309.254 24.3045C296.701 23.9098 284.139 23.6451 271.563 23.5221C288.655 22.4235 305.755 21.2861 322.884 19.997C323.621 19.9443 323.982 19.7734 324.049 19.734C324.998 19.1679 325.082 18.2109 325.074 17.6712C325.073 17.4785 324.977 15.892 323.602 15.7341C322.797 15.6412 316.971 15.6634 314.73 15.6175C303.964 15.3844 304.213 15.4899 293.197 15.3708C268.972 15.113 244.773 15.3269 220.507 15.7241C210.832 15.883 201.156 16.1009 191.476 16.3841C219.44 12.0032 247.921 10.7707 275.072 9.10166C289.078 8.24106 303.086 7.49224 317.084 7.05709C323.354 6.86244 329.619 6.80297 335.887 6.64861C337.835 6.60038 339.775 6.61095 341.72 6.57779C341.951 6.57354 344.97 6.46158 345.465 6.42411C346.763 6.32609 347.09 4.82834 347.103 4.76835C347.164 4.48654 347.416 2.48022 345.811 2.24902C322.613 -1.09212 298.184 1.11361 274.681 1.50938C233.545 2.20185 192.27 4.44135 151.08 8.04453C132.862 9.63801 114.687 12.0174 96.4788 14.3907C87.3851 15.5761 78.2665 16.8077 69.2386 19.074C68.3329 19.3016 66.2846 19.5888 65.2886 19.855C64.7819 19.9908 64.4191 20.1842 64.2522 20.3124C63.5211 20.8692 63.3629 21.6443 63.3411 22.1836C63.3261 22.5877 63.3658 24.006 64.8431 24.3695C85.9524 29.5717 109.586 24.4482 131.147 23.1859C136.666 22.8627 142.184 22.5636 147.705 22.287ZM165.679 21.4674C159.261 23.027 152.902 24.8186 146.626 26.889C162.151 25.8796 177.672 25.0968 193.194 24.5338C218.821 22.6572 244.441 21.0878 270.093 19.4413C253.527 19.4485 236.952 19.6345 220.348 19.9067C202.136 20.2049 183.91 20.7151 165.679 21.4674ZM254.642 6.14615C220.154 7.1396 185.599 9.19941 151.105 12.217C132.919 13.8079 114.782 16.1831 96.6091 18.5519C89.4583 19.484 82.2877 20.4419 75.1629 21.9229C93.4595 23.9506 113.071 20.0688 131.199 19.0078C142.648 18.3376 154.101 17.769 165.549 17.296C194.767 10.2375 225.193 7.93178 254.642 6.14615Z" fill="#FFC32D"/>
</svg>
